<svg xmlns="http://www.w3.org/2000/svg"  viewBox="0 0 48 48" width="50px" height="50px"><path fill="#e9a81c" d="M28.915,40.942c-0.065,0.024-0.13,0.047-0.204,0.047C28.711,40.989,28.788,40.979,28.915,40.942z"/><path fill="#e9a81c" d="M28.984,40.921c-0.024,0.008-0.048,0.016-0.069,0.022C28.938,40.934,28.963,40.931,28.984,40.921z"/><path fill="#e9a81c" d="M20.739,40.862c-0.144-0.076-0.255-0.159-0.381-0.24C20.516,40.83,20.739,40.862,20.739,40.862z"/><path fill="#e9a81c" d="M46.015,15.047c-0.886-2.657-3.164-5.442-6.327-3.29c-1.508,1.025-3.04,1.329-4.235,1.369	c-1.236-1.057-6.079-4.763-11.646-3.523c1.503-1.257,4.492-1.263,4.492-1.263c-3.417-1.265-7.337,1.16-7.337,1.16	c0.22-0.385,2.122-1.915,2.122-1.915L19.06,9.858c-2.467,1.233-3.795,2.378-4.492,3.326c-0.197,0.104-0.394,0.208-0.568,0.303	l-0.001-0.087c-0.862,0.431-3.272-1.373-5.196-2.139c-2.391-0.951-5.182-0.002-6.338,2.298c-1.836,3.654-0.995,9.458-0.995,9.458	l0.127-1.265c0,0,0.19,5.334,7.934,6.513c-0.061,0.763-0.192,1.611-0.468,2.219c0,0,1.645-0.633,1.519-1.645	c0,0,0.127,0.759,0.506,2.404L11.222,30c0,0,3,4,5.816,5.927c0,0,3.418,5.695,9.111,5.062c2.917-0.324,3.796-3.923,5.062-5.062	s7.085-4.303,6.832-7.719c0,0,0.506,1.139,0.127,2.404c0,0,0.845-0.574,0.587-2.687c7.115,0.092,7.006-6.045,7.006-6.045	l0.253,1.392C47.154,20.741,46.901,17.704,46.015,15.047z"/><path fill="#fadaa8" d="M16.013,29.47c-0.446,0.203-0.681,0.69-0.558,1.165c0.087,0.336,0.173,0.788,0.221,1.37	c0,0-0.365,1.218,1.293,4.25c0.064,0.117,0.107,0.244,0.12,0.377c0.055,0.554,0.186,2.14-0.021,2.966l1.012-1.772	c0,0-0.506,2.531,1.645,3.67l-0.38-1.645c0,0,1.772,2.278,4.682,2.025s4.935-0.759,5.442-2.531l0.506,1.645	c0,0,0.253-2.911,1.139-5.188c0.886-2.278,0.506-4.303,0.506-4.303s-0.062-0.492,0.159-1.134c0.165-0.48-0.089-1.01-0.557-1.207	c-0.726-0.305-1.758-0.895-2.846-2.021c-0.192-0.199-0.455-0.321-0.731-0.321h-7.619c-0.367,0-0.687,0.209-0.881,0.52	c-0.282,0.451-0.959,1.146-2.583,1.884L16.013,29.47z"/><path fill="#cc8b2c" d="M9.476,22.133c0,0-2.151-2.657-2.784-5.442c-0.559-2.461-2.351-3.172-5.061-1.514	c-1.004,3.531-0.382,7.842-0.382,7.842l0.127-1.265c0,0,0.2,5.175,7.624,6.452C9.448,27.309,9.945,25.496,9.476,22.133z"/><path fill="#cc8b2c" d="M45.54,21.88l0.253,1.392c1.139-2.531,0.886-5.568,0-8.226c-0.16-0.479-0.47-0.051-0.717-0.509	C43.396,13.246,41,16,41,16c-0.38,4.176-2.925,5.374-2.925,5.374c-0.841,3.889,0.585,5.94,1.093,6.524	C45.622,27.617,45.54,21.88,45.54,21.88z"/><path fill="#cc8b2c" d="M10.488,23.399c0,0,0.506-3.164,3.417-3.923c2.911-0.759,3.164,0,4.556-1.898	c0,0,0.127,0.633-0.759,1.392c0,0,2.657,1.772,1.898,5.821c0,0-3.543,1.519-5.695,0.759C11.754,24.791,10.488,23.399,10.488,23.399z"/><path fill="#cc8b2c" d="M27.825,25.677C27.825,25.677,27.825,25.677,27.825,25.677c-0.003-0.014-1.386-6.964,4.429-11.01	l-0.633,1.012c0,0,2.151-1.012,3.29,2.025S36,24,36,24l-3,1C33,25,31,26,27.825,25.677z"/><path fill="#252525" d="M31.535,30.851c0.023,2.219-0.415,4.78-2.542,5.76c-0.666-0.439-1.283-0.599-2.027-0.882	c0,0-1.159-0.363-1.159-0.363c-0.301-0.084-0.8-0.132-1.094-0.16V32H23.7v3.213c-1.366,0.125-2.465,0.71-3.751,1.315	c-2.567-0.603-3.633-3.23-4.452-5.557c0.43,2.659,1.607,5.841,4.531,6.645c1.597-0.783,3.68-1.813,5.501-1.276l1.114,0.349	c0.791,0.263,1.704,0.591,2.29,1.102C31.361,36.548,32.076,33.498,31.535,30.851z"/><path fill="#252525" d="M9.602,32.763c1.891-1.681,4.806-2.397,7.213-1.519C14.268,31.384,11.974,31.817,9.602,32.763	L9.602,32.763z"/><path fill="#252525" d="M10.904,35.544c1.484-2.049,4.175-3.378,6.715-3.04C15.162,33.191,13.016,34.109,10.904,35.544	L10.904,35.544z"/><path fill="#252525" d="M14.022,38.858c0.426-2.494,2.254-4.874,4.683-5.692C16.804,34.867,15.283,36.638,14.022,38.858	L14.022,38.858z"/><path fill="#252525" d="M37.941,32.763c-1.891-1.681-4.806-2.397-7.213-1.519C33.275,31.384,35.569,31.817,37.941,32.763	L37.941,32.763z"/><path fill="#252525" d="M36.639,35.544c-1.484-2.049-4.175-3.378-6.715-3.04C32.381,33.191,34.527,34.109,36.639,35.544	L36.639,35.544z"/><path fill="#252525" d="M33.521,38.858c-0.426-2.494-2.254-4.874-4.683-5.692C30.74,34.867,32.26,36.638,33.521,38.858	L33.521,38.858z"/><path fill="#252525" d="M27.782,11.084c-1.383-1.274-3.36-1.735-5.155-1.393c1.332,0.064,2.865,0.523,3.896,1.503	c-1.023,0.377-3.839,1.414-3.839,1.414c-0.43,0.142-0.492,0.753-0.043,0.916l3.244,1.138l-1.957-1.435	c1.304-0.479,3.64-1.333,3.651-1.343C27.901,11.768,28.012,11.338,27.782,11.084z"/><path fill="#252525" d="M3.364,22.938l0.065,0.969c-0.84-1.002-0.153-3.293-0.153-3.293l-0.506,0.759	c-0.506-0.886,0.506-3.037,0.506-3.037l-0.759,0.38c1.265-4.556,4.05-2.657,4.05-2.657c-0.207-1.137-0.958-1.69-1.881-1.904	c-2.462-0.569-4.341,1.535-4.645,4.044c-0.278,2.299,1.006,5.789,1.006,5.789l0.127-1.265c0,0,0.455,4.622,7.81,5.482	c0.521-0.994,0.569-1.842,0.569-1.842C4.236,26.363,3.364,22.938,3.364,22.938z"/><path fill="#252525" d="M44.636,23.068l-0.065,0.969c0.84-1.002,0.153-3.293,0.153-3.293l0.506,0.759	c0.506-0.886-0.506-3.037-0.506-3.037l0.759,0.38C44.219,14.29,41,16,41,16c0.207-1.137,1.392-1.502,2.316-1.715	c2.462-0.569,4.341,1.535,4.645,4.044c0.278,2.299-1.006,5.789-1.006,5.789l-0.127-1.265c0,0-0.455,4.622-7.81,5.482	c-0.521-0.994-0.569-1.842-0.569-1.842C43.764,26.493,44.636,23.068,44.636,23.068z"/><path fill="#ffea3b" d="M16.7,20.014c-2.448-0.121-3.683,3.077-3.683,3.077c1.939,2.278,3.683,1.866,3.683,1.866 c1.365,0,2.472-1.107,2.472-2.472C19.171,21.121,18.065,20.014,16.7,20.014z"/><circle cx="16.942" cy="22.3" r="2.189" fill="#252525"/><path fill="#ffea3b" d="M30.986,20.014c2.448-0.121,3.683,3.077,3.683,3.077C34,25,30.986,24.958,30.986,24.958 c-1.365,0-2.472-1.107-2.472-2.472C28.514,21.121,29.621,20.014,30.986,20.014z"/><circle cx="30.744" cy="22.3" r="2.189" fill="#252525"/><ellipse cx="17.322" cy="21.754" fill="#fff" rx=".506" ry="1.012"/><ellipse cx="31.495" cy="21.754" fill="#fff" rx=".506" ry="1.012"/><path fill="#e9a81c" d="M26.102,22.68l-4.849,0.086c-0.105,3.566-2.165,6.338-2.165,6.338l4.893,1.32l4.873-1.368	C27.385,27.482,26.102,22.68,26.102,22.68z"/><path fill="#f5837b" d="M26,28c-0.439,0-0.854,0.049-1.228,0.134c-0.508,0.117-1.036,0.117-1.544,0	C22.854,28.049,22.439,28,22,28c-1.657,0-3,0.672-3,1.5c0,0.416,1.261,1.55,2.517,2.575c1.442,1.178,3.523,1.178,4.966,0	C27.739,31.05,29,29.916,29,29.5C29,28.672,27.657,28,26,28z"/><g><path fill="#b75917" d="M21,30c-0.493,0-0.939,0.185-1.288,0.481c0.48,0.481,1.14,1.051,1.805,1.593 c0.401,0.328,0.854,0.554,1.327,0.7C22.944,32.536,23,32.275,23,32C23,30.895,22.105,30,21,30z"/><path fill="#b75917" d="M28.288,30.481C27.939,30.185,27.493,30,27,30c-1.105,0-2,0.895-2,2 c0,0.275,0.056,0.536,0.156,0.774c0.473-0.145,0.926-0.372,1.327-0.7C27.147,31.532,27.808,30.962,28.288,30.481z"/></g><path fill="#fcbc5a" d="M10.488,23.399l2.528-0.307c0,0,3.484,3.658,5.734,0.783l0.85,0.916C19.6,24.791,15,28,10.488,23.399	z"/><path fill="#fcbc5a" d="M27.825,25.677l1.55-1.302c0,0,2.964,1.809,5.294-1.283L36,24C36,24,33.65,27.353,27.825,25.677z"/></svg>